<?xml version="1.0" encoding="utf-8"?><svg xmlns="http://www.w3.org/2000/svg" xmlns:xlink="http://www.w3.org/1999/xlink"><symbol viewBox="0 0 15.969 26.015" id="icon--arrow_left"><path fill-rule="evenodd" clip-rule="evenodd" d="M15.472 21.943L6.51 12.994l8.952-8.938c.787-.786.627-2.22-.356-3.201-.983-.982-2.419-1.142-3.206-.356l-9.68 9.665a2.958 2.958 0 0 0-1.346.778c-.58.579-.867 1.31-.854 1.976-.083.713.203 1.531.837 2.164.403.402.881.658 1.36.776l9.675 9.661c.787.784 2.225.62 3.214-.367s1.152-2.424.366-3.209z"/></symbol><symbol viewBox="0 0 15.844 25.859" id="icon--arrow_right"><path fill-rule="evenodd" clip-rule="evenodd" d="M15.826 12.841c.012-.662-.273-1.389-.849-1.964a2.932 2.932 0 0 0-1.335-.773L4.039.496C3.257-.285 1.833-.126.858.85c-.977.977-1.135 2.401-.354 3.182l8.881 8.884-8.893 8.896c-.779.779-.616 2.207.364 3.189.981.98 2.409 1.145 3.188.363l9.599-9.602c.476-.116.95-.371 1.351-.771.63-.628.914-1.441.832-2.15z"/></symbol><symbol viewBox="0 0 40 32" id="icon--cam"><path d="M36.769 5.101h-6.49l-3.885-4.08s-.02-.02-.028-.02L26.345.98C25.769.38 24.99 0 24.104 0h-8.076c-.942 0-1.779.42-2.365 1.09v.011l-3.798 4H3.231C1.442 5.101 0 6.56 0 8.42v20.21C0 30.489 1.442 32 3.231 32H36.77c1.778 0 3.23-1.511 3.23-3.37V8.42c-.001-1.858-1.453-3.319-3.231-3.319zm-16.77 21.85c-4.895 0-8.885-4.161-8.885-9.261 0-5.109 3.99-9.26 8.885-9.26 4.904 0 8.885 4.15 8.885 9.26 0 5.1-3.981 9.261-8.885 9.261zm16.163-16.5c-.74 0-1.347-.63-1.347-1.41s.605-1.41 1.347-1.41 1.347.629 1.347 1.41c0 .78-.606 1.41-1.347 1.41z"/><path d="M19.999 10.69c-3.711 0-6.711 3.131-6.711 7 0 3.86 3 7 6.711 7 3.702 0 6.712-3.131 6.712-7s-3.01-7-6.712-7z"/></symbol><symbol viewBox="0 0 26.392 26.015" id="icon--close"><path fill-rule="evenodd" clip-rule="evenodd" d="M25.896 21.943l-8.963-8.949 8.951-8.938c.787-.786.628-2.219-.355-3.201-.984-.982-2.42-1.142-3.206-.356l-9.181 9.167L4.039.558C3.257-.223 1.833-.064.858.912c-.977.977-1.135 2.401-.354 3.182l8.881 8.884-8.893 8.896c-.779.779-.616 2.207.364 3.189.981.98 2.409 1.145 3.188.363l9.081-9.083 9.188 9.175c.786.784 2.225.62 3.214-.367.99-.986 1.155-2.423.369-3.208z"/></symbol></svg>